<?xml version="1.0" encoding="utf-8"?>
<!-- Generator: Adobe Illustrator 24.0.1, SVG Export Plug-In . SVG Version: 6.00 Build 0)  -->
<svg version="1.1" id="Layer_1" xmlns="http://www.w3.org/2000/svg" xmlns:xlink="http://www.w3.org/1999/xlink" x="0px" y="0px"
	 viewBox="0 0 688 135" style="enable-background:new 0 0 688 135;" xml:space="preserve">
<style type="text/css">
	.st0{clip-path:url(#SVGID_2_);}
	.st1{fill:#FF7733;}
</style>
<g>
	<g>
		<defs>
			<rect id="SVGID_1_" x="26.5" y="11.3" width="635" height="112.4"/>
		</defs>
		<clipPath id="SVGID_2_">
			<use xlink:href="#SVGID_1_"  style="overflow:visible;"/>
		</clipPath>
		<g class="st0">
			<path class="st1" d="M56.7,11.3l25.8,25.8l-8.7,21.8L52,67.7L26.5,41.5l8.4-21.8L56.7,11.3z"/>
			<path class="st1" d="M113,67.7l25.8,25.8l-8.7,21.8l-21.8,8.7L82.5,98.2l8.4-21.8L113,67.7z"/>
			<path class="st1" d="M82.8,37.2l25.8-25.8l21.8,8.7l8.7,21.8l-25.8,25.8l-21.8-8.4L82.8,37.2z"/>
			<path class="st1" d="M26.5,93.5l25.8-25.8l21.8,8.7l8.7,21.8L57,124l-21.8-8.4L26.5,93.5z"/>
			<path d="M628.5,87c0,2.8,2.2,3.7,6.5,3.7c5.9,0,12.5-1.6,12.5-9.3l-14.3,2.2C630.1,83.8,628.5,84.8,628.5,87z M630.1,101.9
				c-8.7,0-15.6-4.7-15.6-13.7c0-7.8,5.6-12.5,15.9-14l17.1-2.5v-1.6c0-5.9-3.1-6.8-9-6.8s-8.4,1.6-8.4,6.8v1.2h-14.3v-1.2
				c0-11.8,9.3-19.9,23.3-19.9c14.6,0,22.4,8.1,22.4,21.5v29.6h-13.7v-6.8h-0.6C644.4,97.8,639.4,101.9,630.1,101.9z"/>
			<path d="M582.4,117.8v-12.5h4c5,0,5.6-0.6,5.6-4.4V51.2H607v47.3c0,15.3-8.1,19.3-20.2,19.3C585.2,117.8,583.7,117.8,582.4,117.8
				z M607,45.2h-14.9V34.3H607V45.2z"/>
			<path d="M558.5,101h-14.9V50.8h13.7v8.1h0.6c2.5-5,6.8-9,14-9c10.6,0,14.3,7.8,14.3,17.7v4.7h-14.9v-2.8c0-5.3-1.6-7.2-6.2-7.2
				c-4.7,0-6.8,1.6-6.8,7.2L558.5,101L558.5,101z"/>
			<path d="M535.4,101h-14.9V50.8h14.9V101z M535.1,45.2h-14.6l-0.3-10.9h14.9V45.2L535.1,45.2z"/>
			<path d="M471.3,72.6v14.6h19c5.6,0,8.4-0.9,8.4-7.2c0-6.5-2.8-7.5-8.4-7.5C490.3,72.6,471.3,72.6,471.3,72.6z M471.3,47.7v13.1
				h16.8c5.6,0,8.1-1.2,8.1-6.5c0-5.3-2.5-6.5-8.1-6.5L471.3,47.7L471.3,47.7z M490.9,101h-34.6V34.3h32.7c14.3,0,21.8,5,21.8,16.5
				c0,8.1-4.4,13.1-13.4,14.3v0.9c10.9,0.9,15.9,7.5,15.9,16.5C513.6,93.8,506.2,101,490.9,101z"/>
			<path d="M420.6,101.3c-13.1,0-19.3-4.7-19.3-16.5V63.6h-8.1V51.2h8.4l2.8-11.5h11.8v11.5h14v12.5h-14v19.3c0,4.4,1.6,5,8.1,5h6.2
				v12.5C428,100.7,424,101.3,420.6,101.3z"/>
			<path d="M365.8,88.8c8.1,0,10.9-3.1,10.9-12.8S373.9,63,365.8,63s-10.9,3.1-10.9,13.1C354.9,85.7,357.7,88.8,365.8,88.8z
				 M365.8,101.9c-16.2,0-25.5-10.3-25.5-25.8c0-15.9,9.6-26.1,25.5-26.1S391,60.2,391,76.1S381.7,101.9,365.8,101.9z"/>
			<path d="M298.2,117.8c-3.4,0-7.2-0.6-9-1.2v-12.5h8.1c3.7,0,5.3-0.6,6.5-3.7l0.9-1.9l-20.9-47.9h16.5l8.1,20.9l3.7,9.6h1.2
				l3.1-9.6l7.2-20.9h16.5l-22.4,53.5C313.5,114.7,307.9,117.8,298.2,117.8z"/>
			<path d="M249.1,87c0,2.8,2.2,3.7,6.5,3.7c5.9,0,12.5-1.6,12.5-9.3l-14.3,2.2C250.6,83.8,249.1,84.8,249.1,87z M250.6,101.9
				c-8.7,0-15.6-4.7-15.6-13.7c0-7.8,5.6-12.5,15.9-14l17.1-2.5v-1.6c0-5.9-3.1-6.8-9-6.8c-5.9,0-8.4,1.6-8.4,6.8v1.2h-14.3v-1.2
				c0-11.8,9.3-19.9,23.3-19.9c14.6,0,22.4,8.1,22.4,21.5v29.6h-13.7v-6.8h-0.6C264.9,97.8,259.6,101.9,250.6,101.9z"/>
			<path d="M183.4,101h-14.9V34.3h14.9v26.5h28.9V34.3h14.9V101h-14.9V74.2h-28.9V101z"/>
		</g>
	</g>
</g>
</svg>
